<svg version="1.2" xmlns="http://www.w3.org/2000/svg" viewBox="0 0 164 109" width="164" height="109">
	<title>ebc</title>
	<style>
		.s0 { fill: #000000 } 
	</style>
	<g id="Layer 1">
		<path fill-rule="evenodd" class="s0" d="m42.3 44c-3.2 1.3-4.3 4.1-4.3 10.8 0 9.6 1.4 10.6 14.4 11 9.1 0.3 10.7 0.1 11.2-1.3 0.4-0.9 0.3-1.9-0.1-2.3-0.3-0.4-5-0.9-10.3-1.2-8.2-0.4-9.7-0.8-10-2.3-0.3-1.5 0.7-1.7 9.8-1.7 8.3 0 10.2-0.3 10.7-1.6 1-2.6-1.6-3.4-11.5-3.4-8.4 0-9.3-0.2-9-1.8 0.2-1.2 1.6-1.8 5-2.2 5.3-0.7 6.3-1.3 5.5-3.5-0.7-1.7-7.6-2-11.4-0.5zm25.1 0.3c-0.2 0.7-0.3 5.8-0.2 11.3l0.3 9.9 10 0.3c11.1 0.3 13.6-0.1 15.9-2.4 1.8-1.8 2.1-6.5 0.5-8.1-0.8-0.8-0.8-1.3 0-1.7 1.3-0.8 1.4-5.5 0.3-7.3-1.4-2.3-6.4-3.3-16.3-3.3-7.3 0-10.1 0.3-10.5 1.3zm34.6 0c-2.4 1.2-2.5 1.7-2.5 10.2 0 8.5 0.1 9 2.5 10.2 1.5 0.8 6.4 1.3 12.3 1.3 9.6 0 9.8 0 9.5-2.3-0.3-2.1-0.8-2.2-10-2.5l-9.8-0.3v-6.4-6.4l9.8-0.3c9.2-0.3 9.7-0.4 10-2.6 0.3-2.2 0.1-2.2-9.5-2.2-5.9 0-10.8 0.5-12.3 1.3zm-30 5.7c0 1.9 0.7 2 9 2 8.3 0 9-0.1 9-2 0-1.9-0.7-2-9-2-8.3 0-9 0.1-9 2zm0 9c0 1.9 0.7 2 9 2 8.3 0 9-0.1 9-2 0-1.9-0.7-2-9-2-8.3 0-9 0.1-9 2z"/>
		<path fill-rule="evenodd" class="s0" d="m46.3 18c-4.2 2.5-6.2 8.5-4.3 13 1.9 4.5 5.6 7 10.4 7 4.8 0 8-1.9 10.1-6 1.9-3.7 1.9-5.4-0.1-9.6-2.9-6.2-10.1-8.1-16.1-4.4zm28.4 1c-3.9 3.4-4.9 6.7-3.6 11.6 3 10.5 19.5 9.6 21.5-1.2 1.9-10.5-10-17.4-17.9-10.4zm1.5 53.3c-7 4-7.6 14.7-0.9 18.7 12.5 7.6 24.4-9 12.9-18-2.8-2.3-8.5-2.6-12-0.7zm27.2 2.1c-2.6 2.6-3.4 4.2-3.4 7.1 0 7.3 4.3 11.5 11.6 11.5 5.4 0 10.4-5.3 10.4-11 0-3.4-0.6-4.8-3.4-7.6-2.8-2.8-4.2-3.4-7.6-3.4-3.4 0-4.8 0.6-7.6 3.4z"/>
		<path fill-rule="evenodd" class="s0" d="m131.5 2c-3.8 4.2-2.5 7.4 6.6 16.6l8.4 8.4-7.7 7.7c-4.2 4.3-8.1 8.9-8.6 10.3-1.2 3.1 0.7 8.4 3.3 9.4 4.2 1.6 6.1 0.3 18.2-11.6 16.4-16.2 16.4-15.2 0.5-31-10.6-10.6-12.1-11.8-15.3-11.8-2.3 0-4.2 0.7-5.4 2zm-25.1 14.9c-6.7 2.9-8.6 12.5-3.5 18 4.8 5.1 13.9 4.1 17.6-2.1 2.3-4 1.5-10.2-1.8-13.5-2.6-2.7-8.8-3.9-12.3-2.4zm-94.1 49.3c-16.4 16.2-16.4 15.2-0.5 31 10.6 10.6 12.1 11.8 15.3 11.8 4.4 0 7.2-2.8 7.2-7.1 0-2.5-1.5-4.6-8.4-11.5l-8.4-8.4 7.7-7.7c4.2-4.3 8.1-8.9 8.6-10.3 1.2-3.1-0.7-8.4-3.3-9.4-4.2-1.6-6.1-0.3-18.2 11.6zm34.7 6.1c-1.4 0.7-3.3 2.9-4.4 5.1-3.7 7.5 1.5 15.6 9.9 15.6 5.2 0 8.9-2.7 10.5-7.5 3.1-9.4-6.9-17.7-16-13.2z"/>
	</g>
</svg>