<svg version="1.2" xmlns="http://www.w3.org/2000/svg" viewBox="6 3 20 20" width="50" height="50">
	<title>Ecobee_logo</title>
	<style>
		.s0 { fill: #000000 } 
	</style>
	<g id="Layer 1">
		<path fill-rule="evenodd" class="s0" d="m16.8 3.8q4.2 0 6.3 2.1 2.1 2.1 2.1 6.3v1.6h-16.3q0 3.3 1.6 4.9 1.6 1.5 4.9 1.5h1.4q2.4 0 3.9-0.7 1.5-0.8 2.1-2.3h1.9q-0.6 2.3-2.6 3.6-2 1.2-5.3 1.2h-1.4q-4.2 0-6.3-2.1-2.1-2.1-2.1-6.3v-1.4q0-4.2 2.1-6.3 2.1-2.1 6.3-2.1zm-0.1 1.8h-1.3q-3.3 0-4.9 1.6-1.6 1.5-1.7 4.8h14.5q-0.1-3.3-1.7-4.8-1.6-1.6-4.9-1.6z"/>
	</g>
</svg>