<svg xmlns="http://www.w3.org/2000/svg" width="873" height="703" viewBox="0 0 873 703" version="1.1"><path d="M 533.039 125.487 L 498.579 222 451.258 222 C 413.023 222, 403.840 222.253, 403.431 223.318 C 403.153 224.043, 388.641 302.455, 371.181 397.568 L 339.436 570.500 254.968 570.500 L 170.500 570.500 170 396.500 L 169.500 222.500 112 222.500 L 54.500 222.500 54.248 452.750 L 53.996 683 186.748 683.171 C 317.267 683.339, 438.209 683.014, 438.802 682.494 C 438.968 682.349, 446.714 637.291, 456.017 582.365 C 465.319 527.439, 473.283 481.228, 473.715 479.672 C 474.377 477.287, 480.356 492.507, 511.920 576.933 L 549.339 677.021 591.834 676.761 L 634.328 676.500 671.414 577.308 C 691.811 522.752, 708.737 477.890, 709.026 477.615 C 709.316 477.340, 717.408 523.439, 727.010 580.057 L 744.467 683 804.234 683 C 861.368 683, 864 682.920, 864 681.180 C 864 679.738, 797.590 316.225, 795.413 305.750 L 794.841 303 768.421 303 L 742 303 742 262.500 L 742 222 768.500 222 L 795 222 795 125.500 L 795 29 769.005 29 L 743.010 29 742.755 125.250 L 742.500 221.500 720.750 221.770 C 708.788 221.918, 699 222.411, 699 222.866 C 699 223.524, 716.409 271.755, 726.029 297.750 L 727.972 303 700.609 303 L 673.246 303 668.970 290.750 C 666.618 284.012, 664.420 278.181, 664.087 277.790 C 663.754 277.400, 647.510 319.584, 627.990 371.532 C 608.471 423.480, 592.120 465.860, 591.656 465.710 C 591.192 465.560, 576.567 427.541, 559.156 381.222 C 541.745 334.904, 527.139 297.006, 526.698 297.004 C 526.257 297.002, 525.425 298.350, 524.850 300 L 523.804 303 496.795 303 C 471.478 303, 469.829 302.890, 470.472 301.250 C 471.175 299.455, 494.034 234.997, 496.760 227.121 C 497.885 223.872, 498.491 223.126, 499.109 224.231 C 499.727 225.335, 520.658 279.279, 525.883 293.234 C 526.300 294.348, 529.533 286.489, 534.933 271.234 C 539.553 258.180, 543.947 246.259, 544.697 244.741 L 546.060 241.982 598.780 242.241 L 651.500 242.500 657.491 259.224 C 662.030 271.895, 663.754 275.651, 664.609 274.724 C 665.230 274.051, 673.061 262.025, 682.011 248 L 698.286 222.500 694.603 212 C 692.578 206.225, 677.094 162.800, 660.194 115.500 L 629.466 29.500 598.483 29.237 L 567.500 28.973 533.039 125.487 M 580.826 142.881 L 563.284 192 598.259 192 C 631.081 192, 633.204 191.892, 632.760 190.250 C 632.395 188.900, 602.295 104.394, 599.058 95.631 C 598.590 94.362, 592.733 109.540, 580.826 142.881" stroke="none" fill="#040404" fill-rule="evenodd"/></svg>