<svg version="1.2" xmlns="http://www.w3.org/2000/svg" viewBox="0 0 413.94 548.64734" width="414" height="549">
	<title>Royal_Bank_of_Canada</title>
	<style>
		.s0 { fill: #000000 } 
		.s1 { fill: #fdfdff } 
		.s2 { fill: #fefefc } 
		.s3 { fill: #ffffff } 
	</style>
	<g id="Layer 1">
		<path id="path2215" class="s0" d="m166 546.5c-59.6-4.8-137.7-24.8-152.8-39-3.4-3.2-7-9.1-8.2-13.1l-5-494.4h413.9l-3.1 507.7c-13.9 12.2-73.6 29-129.1 36.3-26.6 3.4-87.7 4.8-115.7 2.5z"/>
		<path id="path2213" class="s1" d="m78.4 477.4c0.6-30.8 1.7-30.8 24.6 0.3l17.2 23.4 13.9 0.5c7.9 0.3 14.4-0.3 15-1.3 0.7-1-7-12.3-17-25.2l-18.1-23.2 8.8-4.5c10.7-5.3 16.4-13.6 16.4-23.9 0-13.8-4.5-20.5-17.3-25.4-8.1-3.2-81.8-3.2-77.9-0.1 8.8 6.9 9.1 8.6 9.1 57.5v46.3l12.4-0.7 12.3-0.6z"/>
		<path id="path2211" class="s0" d="m78.8 424.7v-18.5l13.9 0.7c11.9 0.6 14.4 1.3 17.4 5 6.7 8.3 2.8 24.9-7 29.4-2.4 1.1-8.9 1.9-14.4 1.9h-9.9z"/>
		<path id="path2209" class="s1" d="m239 498.1q23.2-6.8 23.5-29.1c0.1-12-4.6-19.8-14.6-24.3l-8.4-3.6 5.6-3.4c3.1-1.9 6.5-5.1 7.5-7.1 3-5.5 2.4-18.2-1.1-24.1-5.4-9.1-14.7-10.9-55.4-10.8-34.2 0-35.7 0.1-31.9 3.2 7.5 6.1 8 9.4 8 57.3v46.2l29.7-1.1c16.4-0.5 33.1-2 37.1-3.2z"/>
		<path id="path2207" class="s0" d="m197.8 468.7v-20.3l14.6 0.6c13 0.6 15.2 1.2 19.6 5.6 3.9 3.9 4.8 6.5 4.7 13.1-0.2 15.6-7.4 21.3-26.9 21.3h-12z"/>
		<path id="path2205" class="s0" d="m197.8 422.2v-16l12.8 0.7c15.1 0.9 18.6 3.8 17.9 15.1-0.6 9.5-6.9 14.2-20.5 15.4l-10.2 0.8z"/>
		<path id="path2203" class="s2" d="m365.4 498.6c8.7-3 9.2-3.5 9.7-10.3 0.6-6.2 0.2-6.9-2.7-5.7-23.6 10-42.3 7.9-54.1-6.1-7.2-8.5-9.3-17.1-8.4-34.1 1.2-22.6 9.1-33.4 25.9-35.3 12.1-1.4 20.3 0.7 27 7 3.2 3 6.2 5.2 6.5 4.8 0.4-0.4 1.8-4.5 3.3-9.3l2.5-8.6-5.6-2.9c-3.2-1.6-12.4-3.3-21-3.9-27-1.7-48.2 7-57.9 23.8-6.4 10.9-9.1 27.6-6.8 41.8 4.5 28.2 22.8 41.9 56 41.9 10.7 0 19.6-1.1 25.6-3.1z"/>
		<path id="path2201" class="s3" d="m271.8 386.9c0.6-3.8 0.4-11.6-0.4-17.4l-1.5-10.5h40.4c35.4 0.1 41.4 0.5 47.9 3.5 8.7 3.9 15.4 11.7 15.4 17.7 0 5 3.5 7.7 5.5 4.4 0.8-1.2 2.9-7.5 4.6-14l3.2-11.8-4.3-4.7c-2.4-2.5-7.4-6.2-11.1-8.1l-6.7-3.4 7.8-8.3c28-29.7 30.5-79.1 5.5-108.8l-4.9-5.8 8.5-13.8c9.5-15.4 10.9-24 4.8-30-2-2-12.7-8.2-23.8-13.8l-20.1-10.1h-38.3-38.4l-13.4 8.3-13.5 8.3-0.5-23.8c-0.5-22.9-0.7-23.9-4.3-23.9-3.3 0-3.5-0.5-1.5-2.8 3.2-3.9 1.1-5.3-3.9-2.6-2.8 1.5-7.6 1.7-15.3 0.8-15.2-2-32.4-2.1-36.3-0.2-2.3 1.1-3.2 0.7-3.2-1.4 0-5.5 7.6-7.3 31.6-7.4l23.3-0.2 6-5.9 5.9-6 0.7-27.5 0.7-27.4h-62.1-62.1l0.1-10.5v-10.6l-21.3 0.3c-28.3 0.4-37.7 4.9-44.5 21.3-7.7 18.4 2.2 40.4 20.2 44.4 2.9 0.7 6.8 1.6 8.5 2.1 2.7 0.7 3.3-0.4 3.3-6.6 0-6.6-0.5-7.4-4.3-7.4-9 0-14.7-13.5-10.3-24.1 2.8-6.9 11-10.7 22.7-10.7h8.3v11 10.9h22 22v4.6c0 4-0.8 4.6-6.4 4.6-5 0-6.4 0.7-6.4 3.4 0 2.6 3.1 4.6 12.3 8l12.4 4.5 0.5-12.5 0.6-12.6h32 31.9v12.7c0 17.4-1.3 18.5-22.2 18.5-30.7 0-42.3 6.4-42.3 23.4 0 12.9 5.2 21.8 16 27.4 7.2 3.8 24.1 3.7 31.5-0.2 3.2-1.6 7.5-3 9.6-3 3.1 0 3.8 1.2 3.8 6.9v6.8l-11.1-0.6c-6.2-0.3-18.7 0.8-28 2.6-9.2 1.7-23.8 3.2-32.4 3.3-13.9 0.2-16.5-0.3-24.3-4.9-9.4-5.6-16.1-14.4-19.6-26-2.2-7-6.2-11.9-9.8-11.9-2.8 0-0.3 22.4 3.3 30 4.9 10.1 15.9 20 31 27.9 32.4 16.9 51.9 33.7 60.7 52.1 2.8 6 5.8 10.9 6.6 10.9 0.8 0 1.7-5.1 2-11.2l0.5-11.3 14.7 10.9c25.2 18.8 35.1 32.5 40.5 56 1.8 7.8 3.8 14.2 4.5 14.2 2.3 0 3.9-18 2.5-27.9-0.7-5.3-2.4-12.7-3.7-16.5l-2.5-6.9h12.8 12.7v16.5 16.5h-4.7c-6.3 0-4.9 4.4 1.6 5.1 3.4 0.4 4.9 1.7 4.9 4 0 4.7 1.9 9.2 3.9 9.2 0.9 0 1.6-3 1.6-6.7v-6.7l15.1 1.2c8.4 0.6 18.2 1.2 22 1.2 6.9 0 6.9 0 6.9 7.8 0 4.3-0.6 10.9-1.2 14.6-1 6.1-1.7 6.9-6.4 6.9-2.9 0-5.2 0.8-5.2 1.8 0 1 2.1 1.9 4.7 1.9 4.3 0 4.6 0.5 3.5 5.5-1.5 6.9 1.7 7.2 5.2 0.5 2.4-4.5 3.5-4.9 11.5-4.6 4.9 0.3 13 0.9 17.8 1.5l8.9 1.1-8.8 9c-4.8 4.9-10.1 9.3-11.6 9.8-4.1 1.3-73 12-77.2 12-1.9 0-3.5-1.1-3.5-2.4 0-1.3-2.8-8.1-6.1-15.1-11.4-23.6-27.4-37.7-92.8-81.4-72.1-48.4-102.9-72.2-117.4-91-9-11.6-14.5-26.7-14.4-39.5 0.1-9 1.1-12.8 7.4-28.4 3.5-8.5 0.8-9.4-6.6-2.3-9.8 9.5-14.2 23.3-13.3 41.5 0.7 12.9 1.8 17.1 7.8 29.3 6.2 12.6 10.5 17.8 35.8 42.7 29.8 29.5 41.1 43.1 46.8 56.4 4.9 11.5 8 10.1 7.6-3.3-0.3-7 0.3-10.7 1.5-10.2 1.1 0.4 7.7 4.7 14.7 9.6 17.7 12.3 37.2 32 47.7 48.3l9 13.7 0.5-12.3 0.5-12.3 13.2 9.5c31.6 22.8 49 46.5 55.4 75.6 1.7 7.5 3.8 13.7 4.6 13.7 0.8 0 1.9-3.1 2.5-6.9z"/>
		<path id="path2199" class="s0" d="m336.8 307.5c0.9-2.4 2.8-8.4 4-13.2l2.3-8.9 14.8 0.5c8.2 0.3 16.3 0.9 18 1.3 3.9 0.9 4.1 5.7 0.7 13.9-2.4 5.6-3.3 6.1-13.3 7.2-5.9 0.6-14.7 1.7-19.5 2.4-8.7 1.2-8.8 1.2-7-3.2z"/>
		<path id="path2197" class="s0" d="m286.4 270c0.6-3.9 1.6-11.1 2.2-16l1.2-8.7 18.2 0.3c9.9 0.1 18.5 0.9 18.9 1.7 0.5 0.7 1.4 7.2 2.1 14.4l1.2 13-12.6 0.1c-7 0-17.1 0.5-22.5 1.2l-9.8 1.1z"/>
		<path id="path2195" class="s0" d="m344.3 263.3c0-5.6-0.5-11.5-1.1-13.1-1.2-3.3 4.1-3.8 20.8-1.7l9.6 1.1 3.1 9.8c1.7 5.4 2.7 10.2 2.2 10.7-0.6 0.6-8.5 1.5-17.8 2.2l-16.8 1.2z"/>
		<path id="path2193" class="s0" d="m258.1 232.8c3.5-4.8 19.2-16.7 22.1-16.7 0.7 0 0.4 5-0.5 11l-1.8 11h-11.8-11.8z"/>
		<path id="path2191" class="s0" d="m293.7 233.1c6.7-23.7 7.1-24.3 13.4-24.3 6.4 0 9.1 3.4 14.4 18.3l2.4 6.9-5.6 1.2c-3 0.6-10 1.1-15.5 1.1-8.6 0-9.9-0.5-9.1-3.2z"/>
		<path id="path2189" class="s0" d="m339.7 229.4c-0.6-2.8-1.9-7-2.9-9.4-1-2.4-1.3-4.7-0.9-5.2 1.4-1.4 16.1 7.7 21.1 13.1l4.5 4.7-4.5 0.2c-2.4 0.1-7.1 0.5-10.3 0.9-5.2 0.6-6.1 0.1-7-4.3z"/>
		<path id="path2187" class="s0" d="m234.3 220.5c-3.4-3.4-8.8-8.1-12.1-10.4-3.3-2.2-5.8-4.7-5.6-5.5 0.3-0.7 12.8-8.8 27.9-17.8l27.4-16.5h33.6c33.5 0 33.6 0 43.1 5.3 5.2 2.9 12.2 6.6 15.5 8.3l6 3.1-4.9 9.1c-5.2 9.5-7.1 10.5-12.4 6.7-2.6-2-2.8-3.2-1.2-7.6 2.4-6.3 0.9-8.4-9.1-13-8.4-3.7-11.3-2.6-6.5 2.7 1.8 2 2.8 4.8 2.3 6.2-0.8 2.2-4.6 2.5-20.3 1.7-29.2-1.5-48.7 5.5-67.9 24.4l-9.8 9.6z"/>
		<path id="path2185" class="s0" d="m183.4 184.5c-13.4-8.6-13.3-8.7 9.3-12.4 13.5-2.1 27.3-1.4 32.3 1.7 1.7 1.1-1.7 4-11.7 10-7.8 4.7-15 8.5-16.2 8.4-1.1-0.1-7.3-3.6-13.7-7.7z"/>
		<path id="path2183" class="s0" d="m181.3 128.5c0-2.4 8.7-5.8 14.8-5.8 6.1 0 7.1 2.7 1.8 5.4-4.2 2.3-16.6 2.6-16.6 0.4z"/>
		<path id="path2161" class="s3" d="m196 383.8c0-4.3-7.6-23.4-11.8-29.6-10.3-15.3-31.2-34.1-56.2-50.5-8.5-5.6-26.5-17.4-40.1-26.3-43.6-28.6-56.9-45.8-53.2-69 1.7-10.4 1.2-12.4-2.6-12.4-3.7 0-8.3 13.6-8.3 24.7 0 20.8 11.7 40.1 35.8 59.1 31.8 25.1 45.9 40.3 55 59.5 5.1 10.6 8 8.9 7.4-4.1-0.3-6.5 0.2-11 1.3-11 1 0 11.1 6.2 22.4 13.7 21.1 14 38.3 30.7 43.8 42.3 3.1 6.5 6.5 8.3 6.5 3.6z"/>
	</g>
</svg>