<?xml version="1.0" encoding="utf-8"?>
<!-- Generator: Adobe Illustrator 25.2.0, SVG Export Plug-In . SVG Version: 6.00 Build 0)  -->
<svg version="1.1" id="Layer_1" xmlns="http://www.w3.org/2000/svg" xmlns:xlink="http://www.w3.org/1999/xlink" x="0px" y="0px"
	 viewBox="0 0 500 98.5" style="enable-background:new 0 0 500 98.5;" xml:space="preserve">
<style type="text/css">
	.st0{filter:url(#Adobe_OpacityMaskFilter);}
	.st1{fill-rule:evenodd;clip-rule:evenodd;fill:#FFFFFF;}
	.st2{mask:url(#mask-2_2_);fill-rule:evenodd;clip-rule:evenodd;fill:#FFFFFF;}
	.st3{filter:url(#Adobe_OpacityMaskFilter_1_);}
	.st4{mask:url(#mask-4_2_);fill-rule:evenodd;clip-rule:evenodd;fill:#49A4DB;}
</style>
<g id="Page-1">
	<g id="system1-all-white" transform="translate(0.000000, -1.000000)">
		<g id="Group-3" transform="translate(0.000000, 0.565000)">
			<g id="Clip-2">
			</g>
			<defs>
				<filter id="Adobe_OpacityMaskFilter" filterUnits="userSpaceOnUse" x="0" y="0.4" width="72.2" height="97.9">
					<feColorMatrix  type="matrix" values="1 0 0 0 0  0 1 0 0 0  0 0 1 0 0  0 0 0 1 0"/>
				</filter>
			</defs>
			<mask maskUnits="userSpaceOnUse" x="0" y="0.4" width="72.2" height="97.9" id="mask-2_2_">
				<g class="st0">
					<polygon id="path-1_2_" class="st1" points="0,0.4 72.2,0.4 72.2,98.4 0,98.4 					"/>
				</g>
			</mask>
			<path id="Fill-1" class="st2" d="M45.9,41.7l-12-3.6c-2.8-0.8-9.5-2.7-12-4.7c-0.7-0.6-3-2.7-3-7.1c0-5.9,3.2-9,5.2-10.3
				c2.9-2,7.1-3.1,12.1-3.1c14,0,17.9,7.7,19.5,11c0.2,0.3,0.4,0.8,0.6,1.3c0.8,1.7,1.4,2.9,1.7,3.3c1.6,2.3,3.4,2.7,5,2.7
				c4.4,0,7.5-2.9,7.5-7c0-4.1-3.8-11.8-9.3-16.3c-5.9-5-13.9-7.4-24.5-7.4C16.3,0.4,4.1,10.7,4.1,27.8c0,9.6,4.3,16.9,12.2,20.4
				c2.5,1.1,6,2.3,10.7,3.7l10,2.8c7.1,2.1,12.7,3.8,16.3,6.8c1.4,1.1,4.5,4.2,4.5,9.6c0,4.2-2,8.2-5.3,10.8
				c-4.8,3.6-12,3.6-14.4,3.6c-4.3,0-10.6-0.4-15.8-4.2c-5.1-3.7-6.2-8-7.4-12.2l-0.2-0.8c-0.4-1.6-1.3-4.5-6.2-4.5
				C5.5,63.9,0,65.4,0,71c0,2.2,1.9,12.6,10.9,19.8c6,4.8,15.7,7.6,26,7.6c26,0,35.3-14.7,35.3-28.4C72.2,49.3,55.7,44.6,45.9,41.7"
				/>
		</g>
		<path id="Fill-4" class="st1" d="M153.2,8.5c0-3.9-4-6.9-7.5-6.9c-3,0-4.8,1.8-5.8,3.3l-21.3,34.1c-1.7,2.7-2.4,4-3.3,6
			c-2-3.8-4.8-8.6-5.5-9.7L90.5,5c-1.3-2.2-3.4-3.4-6.2-3.4c-3,0-7.4,2.4-7.4,6.7c0,1.7,0.6,2.9,1.2,4.1l29.5,46.8l0,32.3
			c0.1,1.7,0.3,4.4,3.6,6.1c1.1,0.5,2.3,0.7,3.4,0.7c5.3,0,7.1-3.6,7.1-6.9V59.3l30.1-46.8C152.8,11.1,153.2,9.9,153.2,8.5"/>
		<path id="Fill-6" class="st1" d="M200.6,42.3l-12-3.6c-2.8-0.8-9.5-2.7-12-4.7c-0.7-0.6-3-2.7-3-7.1c0-5.9,3.2-9,5.2-10.3
			c2.9-2,7.1-3.1,12.1-3.1c14,0,17.9,7.7,19.5,11c0.2,0.3,0.4,0.8,0.6,1.3c0.8,1.7,1.4,2.9,1.7,3.3c1.6,2.3,3.4,2.7,5,2.7
			c4.4,0,7.5-2.9,7.5-7c0-4.1-3.8-11.8-9.3-16.3c-5.9-5-13.9-7.4-24.5-7.4c-20.4,0-32.7,10.2-32.7,27.4c0,9.6,4.3,16.9,12.2,20.4
			c2.5,1.1,6,2.3,10.7,3.7l10,2.8c7.1,2.1,12.7,3.8,16.3,6.8c1.4,1.1,4.5,4.2,4.5,9.6c0,4.2-2,8.2-5.3,10.8
			c-4.8,3.6-12,3.6-14.4,3.6c-4.3,0-10.6-0.4-15.8-4.2c-5.1-3.7-6.2-8-7.4-12.2l-0.2-0.8c-0.4-1.6-1.3-4.5-6.2-4.5
			c-2.9,0-8.5,1.5-8.5,7.1c0,2.2,1.9,12.6,10.9,19.8c6,4.8,15.7,7.6,26,7.6c26,0,35.3-14.7,35.3-28.4
			C226.9,49.9,210.5,45.1,200.6,42.3"/>
		<path id="Fill-8" class="st1" d="M298.4,3.1c-0.8-0.4-1.8-0.6-3.1-0.6h-59.1c-3.1,0-6.3,1.7-6.3,6.5c0,6.1,4.9,6.6,6.3,6.6h22.5
			v75.9c0,2.1,0.7,7,7.1,7c6.8,0,7.1-5.2,7.3-6.9l0-75.9h22.2c3.1,0,6.3-1.7,6.3-6.5C301.7,5.2,299.2,3.5,298.4,3.1"/>
		<path id="Fill-10" class="st1" d="M370.7,84.5h-46.3V55.3h41.8c3.1,0,6.3-1.7,6.3-6.4c0-4.1-2.3-6.5-6.3-6.5h-41.8V15.8h44
			c4.3,0,6.6-2.3,6.6-6.6c0-4.2-2.5-6.7-6.6-6.7h-51.3c-5.9,0-6.9,3.8-7.1,7.1v80.9c0.1,1.9,0.3,7.1,7.1,7.1h53.5
			c1.5,0,6.3-0.5,6.3-6.6C377.1,86.9,374.7,84.5,370.7,84.5"/>
		<path id="Fill-12" class="st1" d="M428.2,34.2C420,21.1,409.7,4.7,409.5,4.5c-0.6-0.9-1.5-1.7-2.7-2.1c-1.8-0.7-3.8-0.8-5.5-0.8
			c-5.5,0-7.2,1.6-7.8,2.3c-1.6,1.8-1.8,3.6-1.8,5v83l0,0.4c0,1.3-0.1,3.2,1.3,4.6c1,1,2.6,1.6,4.8,1.6c2.7,0,4.5-0.9,5.5-2.8
			c0.8-1.5,0.8-3.1,0.8-4.1c0-2.5,0.5-55,0-70.4c6.7,10.8,27.6,43.4,27.8,43.6c1.5,1.6,3.6,1.8,5.3,1.8c3,0,5.2-1.3,7-4
			c0.1-0.2,0.4-0.7,0.9-1.3L428.2,34.2z"/>
		<g id="Group-16" transform="translate(596.000000, 1.565000)">
			<g id="Clip-15">
			</g>
			<defs>
				<filter id="Adobe_OpacityMaskFilter_1_" filterUnits="userSpaceOnUse" x="-149.8" y="0" width="53.8" height="98">
					<feColorMatrix  type="matrix" values="1 0 0 0 0  0 1 0 0 0  0 0 1 0 0  0 0 0 1 0"/>
				</filter>
			</defs>
			<mask maskUnits="userSpaceOnUse" x="-149.8" y="0" width="53.8" height="98" id="mask-4_2_">
				<g class="st3">
					<polygon id="path-3_2_" class="st1" points="-149.8,0 -96,0 -96,97.9 -149.8,97.9 					"/>
				</g>
			</mask>
			<path id="Fill-14" class="st4" d="M-98.9,85.7l-0.4-0.2c-0.8-0.4-1.8-0.6-3.1-0.6h-10.5V7.2c0-3.1-1-7.3-9.5-7.3
				c-2.5,0-5.2,0.2-7.2,2.1c-0.9,0.8-11.1,16.7-20.2,31.4l8,13.1c9-14.2,16.5-26.1,16.5-26.1l0,64.4h-12c-3.1,0-6.3,1.7-6.3,6.5
				c0,6.1,4.9,6.6,6.3,6.6h34.9c3.1,0,6.3-1.7,6.3-6.5C-96,87.6-98.1,86.1-98.9,85.7"/>
		</g>
	</g>
</g>
</svg>
