<svg version="1.2" xmlns="http://www.w3.org/2000/svg" viewBox="0 0 500 500" width="500" height="500">
	<title>system1-icon</title>
	<style>
		.s0 { fill: #000000 } 
		.s1 { fill: #ffffff } 
	</style>
	<g>
		<path class="s0" d="m250 500c-138.3 0-250-111.8-250-250 0-138.3 111.8-250 250-250 138.3 0 250 111.8 250 250 0 138.3-111.8 250-250 250z"/>
		<g>
			<path id="Fill-1_5_" class="s1" d="m199.6 232.3l-27.7-8.3c-6.5-1.9-21.9-6.2-27.5-10.8-1.5-1.3-6.7-6.2-6.7-16.3 0-13.5 7.5-20.8 11.9-23.8 6.7-4.8 16.3-7.1 27.9-7.1 32.3 0 41.2 17.7 44.8 25.2 0.4 0.8 1 1.7 1.5 3.1 1.9 4 3.3 6.7 3.8 7.5 3.7 5.4 7.9 6.2 11.5 6.2 10.2 0 17.3-6.7 17.3-16.2 0-9.5-8.8-27.1-21.3-37.5-13.5-11.3-31.9-16.9-56.3-16.9-47.1 0-75 23.5-75 62.9 0 22.1 10 38.8 28.1 46.9 5.6 2.5 13.7 5.4 24.6 8.7l22.9 6.3c16.3 4.8 29.2 8.7 37.5 15.8 3.1 2.5 10.4 9.6 10.4 22.1 0 9.6-4.6 18.8-12.3 24.8-11.2 8.5-27.7 8.5-33.1 8.5-10 0-24.4-1-36.5-9.6-11.7-8.5-14.4-18.5-16.9-28.1l-0.6-1.9c-1-3.7-2.9-10.4-14.2-10.4-6.7 0-19.4 3.5-19.4 16.3 0 5 4.4 29 25.2 45.4 13.8 11 36.2 17.5 59.6 17.5 59.8 0 81.2-33.8 81.2-65.4-0.1-47.4-38-58.4-60.7-64.9z"/>
			<path id="Fill-13_5_" class="s1" d="m399 334.6l-1-0.6c-1.9-1-4.2-1.3-7.1-1.3h-24.2v-178.5c0-7.1-2.3-16.7-21.9-16.7-5.8 0-11.9 0.4-16.5 4.8-1.9 1.9-25.4 38.3-46.3 72.3l18.5 30c20.6-32.7 37.9-60 37.9-60v148.1h-27.5c-7.1 0-14.6 3.8-14.6 15 0 14 11.2 15.2 14.6 15.2h80.1c7.1 0 14.6-3.8 14.6-15 0.2-9.1-4.8-12.3-6.6-13.3z"/>
		</g>
	</g>
</svg>