<svg version="1.2" xmlns="http://www.w3.org/2000/svg" viewBox="0 0 1600 316" width="1600" height="316">
	<title>system1-logo-svg</title>
	<style>
		.s0 { fill: #000000 } 
		.s1 { fill: #49a4db } 
	</style>
	<g id="Page-1">
		<g id="system1-all-white">
			<g id="Group-3">
				<path id="Fill-1" fill-rule="evenodd" class="s0" d="m231 222.7c0 43.9-29.7 91-112.9 91-33 0-64-9-83.2-24.3-28.8-23.1-34.9-56.4-34.9-63.4 0-18 17.6-22.8 27.2-23.1 15.7 0 18.6 9.3 19.8 14.4l0.7 2.6c3.8 13.4 7.3 27.2 23.7 39 16.6 12.2 36.8 13.5 50.5 13.5 7.7 0 30.7 0 46.1-11.5 10.6-8.4 17-21.2 17-34.6 0-17.3-10-27.2-14.4-30.8-11.6-9.6-29.5-15-52.2-21.7l-32-9c-15-4.5-26.2-8.3-34.2-11.9-25.3-11.2-39.1-34.5-39.1-65.3 0-54.7 39.1-87.7 104.3-87.4 34 0 59.6 7.7 78.4 23.7 17.6 14.4 29.8 39.1 29.8 52.2 0 13.1-9.9 22.4-24 22.4-5.1 0-10.9-1.3-16-8.6-1-1.3-2.9-5.2-5.4-10.6-0.7-1.6-1.3-3.2-2-4.2-5.1-10.5-17.6-35.2-62.4-35.2-16 0-29.4 3.5-38.7 9.9-6.4 4.2-16.6 14.1-16.6 33 0 14.1 7.3 20.8 9.6 22.8 8 6.4 29.4 12.4 38.4 15l38.4 11.5c31.3 9.3 84.1 24.4 84.1 90.6z"/>
			</g>
			<path id="Fill-4" fill-rule="evenodd" class="s0" d="m485.8 36.8l-96.4 149.9v102.8c0 10.5-5.7 22.1-22.7 22.1-3.5 0-7.3-0.7-10.9-2.3-10.5-5.4-11.2-14.1-11.5-19.5v-103.4l-94.4-149.9c-1.9-3.8-3.8-7.7-3.8-13.1 0-13.8 14.1-21.5 23.7-21.5 8.9 0 15.6 3.9 19.8 10.9l61.8 97c2.2 3.6 11.2 18.9 17.6 31.1 2.8-6.4 5.1-10.6 10.5-19.2l68.2-109.2c3.2-4.8 8.9-10.6 18.5-10.6 11.2 0 24 9.6 24 22.1 0 4.5-1.2 8.3-4.4 12.8zm240 186.1c0 43.8-29.8 90.9-113 90.9-33 0-64-9-83.2-24.3-28.8-23.1-34.9-56.4-34.9-63.4 0-18 17.9-22.8 27.2-22.8 15.7 0 18.6 9.3 19.9 14.4l0.6 2.6c3.8 13.4 7.4 27.2 23.7 39.1 16.6 12.1 36.8 13.4 50.5 13.4 7.7 0 30.8 0 46.1-11.5 10.6-8.3 17-21.1 17-34.6 0-17.3-9.9-27.2-14.4-30.7-11.5-9.6-29.5-15.1-52.2-21.8l-32-9c-15-4.5-26.2-8.3-34.2-11.8-25.3-11.2-39.1-34.6-39.1-65.3 0-55.1 39.4-87.8 104.7-87.8 33.9 0 59.5 7.7 78.4 23.7 17.6 14.4 29.7 39.1 29.7 52.2 0 13.1-9.9 22.4-24 22.4-5.1 0-10.8-1.3-16-8.6-0.9-1.3-2.8-5.1-5.4-10.6-0.6-1.6-1.3-3.2-1.9-4.2-5.1-10.5-17.6-35.2-62.4-35.2-16 0-29.5 3.5-38.7 10-6.4 4.1-16.7 14-16.7 32.9 0 14.1 7.4 20.8 9.6 22.8 8 6.4 29.5 12.5 38.4 15l38.4 11.5c31.7 9 84.2 24.4 83.9 90.7zm239.3-196.6c0 15.3-10.2 20.8-20.1 20.8h-71.1v243c-0.6 5.4-1.6 22.1-23.3 22.1-20.5 0-22.8-15.7-22.8-22.4v-243.1h-72c-4.4 0-20.1-1.6-20.1-21.1 0-15.4 10.2-20.8 20.1-20.8h189.2c4.1 0 7.3 0.6 9.9 1.9 2.5 1.3 10.5 6.7 10.2 19.6zm241 261.9c0 19.5-15.4 21.1-20.2 21.1h-171.2c-21.7 0-22.4-16.6-22.7-22.7v-259.1c0.6-10.5 3.8-22.7 22.7-22.7h164.2c13.1 0 21.1 8 21.1 21.5 0 13.7-7.4 21.1-21.1 21.1h-140.8v85.2h133.7c12.8 0 20.2 7.6 20.2 20.8 0 15-10.2 20.5-20.2 20.5h-133.7v93.5h148.1c12.8 0 20.5 7.7 19.9 20.8zm218.2-95.1c-1.6 1.9-2.5 3.5-2.9 4.1-5.7 8.7-12.8 12.9-22.4 12.9-5.4 0-12.1-0.7-16.9-5.8-0.7-0.7-67.5-105-89-139.6 1.6 49.3 0 217.4 0 225.4 0 3.2 0 8.3-2.5 13.1-3.2 6.1-9 9-17.6 9-7.1 0-12.2-1.9-15.4-5.1-4.5-4.5-4.2-10.6-4.2-14.8v-267c0-4.5 0.7-10.3 5.8-16 1.9-2.3 7.4-7.4 25-7.4 5.4 0 11.8 0.3 17.6 2.6 3.8 1.3 6.7 3.8 8.6 6.7 0.6 0.6 33.6 53.2 59.8 95.1z"/>
			<g id="Group-16">
				<path id="Fill-14" fill-rule="evenodd" class="s1" d="m1599.7 294.5c0 15.3-10.3 20.8-20.2 20.8h-111.7c-4.4 0-20.1-1.6-20.1-21.1 0-15.4 10.2-20.9 20.1-20.9h38.4v-206.2c0 0-24 38.1-52.8 83.6l-25.6-41.9c29.2-47.1 61.8-98 64.7-100.6 6.4-6.1 15-6.7 23-6.7 27.2 0 30.4 13.4 30.4 23.4v248.8h33.6c4.2 0 7.4 0.6 9.9 1.9l1.3 0.6c2.6 1.3 9.3 6.1 9 18.3z"/>
			</g>
		</g>
	</g>
</svg>