<svg id="Layer_1" data-name="Layer 1" xmlns="http://www.w3.org/2000/svg" viewBox="0 0 318.34 305.62"><path d="M1181.74,768.39c31.11-6.47,35.46-32,17.36-55.06,6.38-82.32-99.94-62.29-140.57-21.26,26.94-39.93,55.09-98.11-17.6-104.68-13.68,15-25.43,30.91-50,22.74-79.1-12.84-25.09,68.34.69,97.28,7.58,33.26-41.87-28.5-55.6-21.59-75.75,24.24-49.41,201.6,71,90.4-6.56,23.64-37.74,36.2-45.64,61.49C934,883.51,988.33,905,1022.87,881.1c22.54-20.23-5.79-83,27.59-88.05-24.82,38.13,4.76,127.56,52.67,73.82,119.08-21,51.64-87.44-22.12-114.7C1116.89,742.29,1144.88,785.91,1181.74,768.39Z" transform="translate(-892.44 -586.35)" style="fill:#fcf5fc;stroke:#000;stroke-miterlimit:10;stroke-width:2px"/><path d="M1042.28,718.69c-14.26-48.38-26,39.74-17.19,49.85C1058.09,785.7,1058.15,736.75,1042.28,718.69Z" transform="translate(-892.44 -586.35)" style="fill:#d8d5dc"/><path d="M1057.94,758.34c2.14,2.13,3.32,5.18,5,7.63a87.24,87.24,0,0,0,7.32,9.58,83.08,83.08,0,0,0,21.31,16.84l-.24.51a60.4,60.4,0,0,1-22.75-15.83,70.6,70.6,0,0,1-5.8-7.32c-.86-1.29-2.48-4-3.23-5.32a15,15,0,0,1-2.14-5.86l.51-.23Z" transform="translate(-892.44 -586.35)" style="fill:#08242e"/><path d="M1057.81,754c2.27,1.82,3.65,4.66,5.45,6.88.89,1.14,2.72,3.39,3.66,4.49a87.66,87.66,0,0,0,14.95,13.66,113.1,113.1,0,0,0,9.79,6.35l-.24.51c-11.1-4.27-20.75-12.08-28.13-21.33-.9-1.18-2.64-3.62-3.45-4.86a14.15,14.15,0,0,1-2.51-5.42l.48-.28Z" transform="translate(-892.44 -586.35)" style="fill:#08242e"/><path d="M1051,766.25c1,2.7,1.6,5.35,2.52,8a72.85,72.85,0,0,0,7.65,14.8c7.29,11.76,17.6,24,16,38.78l-.56,0c-.28-20.64-19.18-34.11-25-52.89a18.39,18.39,0,0,1-1.12-8.57l.56-.06Z" transform="translate(-892.44 -586.35)" style="fill:#08242e"/><path d="M1047.73,767.13c1.25,3.1,1.44,6.82,2.39,10A87.39,87.39,0,0,0,1054.9,790c3.4,7.31,7.84,14.13,12,21,1.22,2,2.39,4,3.53,6l-.47.3c-2.73-3.56-5.65-7.55-8.18-11.29-5.86-8.64-11.29-18.11-13.76-28.35-.67-3.35-1.69-7.14-.85-10.55l.56,0Z" transform="translate(-892.44 -586.35)" style="fill:#08242e"/><path d="M1050.83,736.29c3.16-3.2,7.84-4.11,12.06-5.12,12.93-2.2,26.48.64,38.12,6.43l-.22.52a126.61,126.61,0,0,0-12.34-3.47,65.65,65.65,0,0,0-25.16-1.25,52.27,52.27,0,0,0-6.11,1.47,32.72,32.72,0,0,1-6.07,1.91l-.28-.49Z" transform="translate(-892.44 -586.35)" style="fill:#08242e"/><path d="M1048.14,729.81c2.72-2.72,6.87-4,10.45-5.13l3.8-.91a49.48,49.48,0,0,1,30.45,4.14l3.42,1.86,3.21,2.18a47.94,47.94,0,0,1,5.74,5.19l-.39.4a51.82,51.82,0,0,0-27.13-12l-3.73-.3-3.73,0-3.73.23-3.7.52-3.65.78-3.58,1.06a47.49,47.49,0,0,1-7.15,2.46l-.28-.49Z" transform="translate(-892.44 -586.35)" style="fill:#08242e"/><path d="M1044.62,725c2.94-5.15,8.24-8.37,13.36-11,14.49-6.7,31.22-5.55,46.77-6.52l4.26-.29.08.55c-3.95.77-8.79,1.35-12.79,1.71-16.82,1.3-34.53,1.6-47.84,13.41a21.78,21.78,0,0,1-3.42,2.56l-.42-.37Z" transform="translate(-892.44 -586.35)" style="fill:#08242e"/><path d="M1036.9,773.81c-.9,2.41-2.94,4.26-4.28,6.4a60.31,60.31,0,0,0-4.84,8.9,56.91,56.91,0,0,0-4.39,22.37l-.56,0c-1.44-7.8-.1-16,2.86-23.3l1.07-2.43c.58-1.19,1.88-3.52,2.58-4.64s2.27-3.24,3.12-4.29a10.77,10.77,0,0,1,4-3.45l.4.39Z" transform="translate(-892.44 -586.35)" style="fill:#08242e"/><path d="M1028.22,777c-.38,2.22-2,4-2.94,5.94-.5,1-1.46,2.92-1.9,3.91a55.62,55.62,0,0,0-4.19,14.62,72.53,72.53,0,0,0-.74,8.77l-.56,0c-1.64-8.93.33-18.37,4.39-26.41.53-1,1.69-3,2.31-3.92a8.45,8.45,0,0,1,3.18-3.29l.45.34Z" transform="translate(-892.44 -586.35)" style="fill:#08242e"/><path d="M1025.6,773.91a6.74,6.74,0,0,1-2.76,2.58c-1.79,1.21-4.34,2.87-6,4.14-4.92,3.44-9.15,7.9-11.14,13.68l-.55-.11c.63-7.87,7.19-13.58,13.44-17.55,1.06-.66,2.13-1.29,3.2-1.91a6.76,6.76,0,0,1,3.55-1.3l.3.47Z" transform="translate(-892.44 -586.35)" style="fill:#08242e"/><path d="M1026.83,769.16c-1.58,1.85-3.86,2.53-5.79,3.76-1,.58-2.9,1.78-3.85,2.39a49.93,49.93,0,0,0-11.7,10.47,42,42,0,0,0-4.81,7.67l-.53-.19c2.33-9.25,9.82-16.34,17.78-21.1,1-.58,3.1-1.68,4.15-2.19a9.21,9.21,0,0,1,4.52-1.32l.23.51Z" transform="translate(-892.44 -586.35)" style="fill:#08242e"/><path d="M1032.84,757.14c-1.9,1.92-4.84,2.56-7.3,3.48-1.28.42-3.88,1.15-5.19,1.45-9.58,2.21-19.75,2.76-29.38.62l.08-.55a106.09,106.09,0,0,0,26.21-1.75c2.3-.45,5.4-1.22,7.65-1.85,1.48-.4,3.56-1.15,5-1.55a8.77,8.77,0,0,1,2.7-.37l.21.52Z" transform="translate(-892.44 -586.35)" style="fill:#08242e"/><path d="M1030,762c-2,2.22-5.15,2.68-7.82,3.77-8.26,2.54-17.08,3.87-25.69,2.82v-.56a124.14,124.14,0,0,0,25-4.43c2.82-.6,5.3-2.21,8.27-2.12l.22.52Z" transform="translate(-892.44 -586.35)" style="fill:#08242e"/><path d="M1026.49,747.5a21,21,0,0,1-6.82.49c-4.54-.11-9.08-.36-13.61-.83-11.25-1.31-22.89-3.94-32.23-10.66l.3-.47c9,4.69,18.84,7.2,28.84,8.44,5.54.68,11.22,1.12,16.79,1.46a22.45,22.45,0,0,1,6.75,1l0,.57Z" transform="translate(-892.44 -586.35)" style="fill:#08242e"/><path d="M1031.42,741.84c-2.92,1.3-6.46,1-9.58,1.22-1.61,0-4.83,0-6.44-.09-11.72-.63-23.56-3-34.31-7.73l.19-.53a156,156,0,0,0,31.09,5.76c2.8.23,6.65.38,9.47.43,1.84,0,4.49-.08,6.32,0a12.37,12.37,0,0,1,3.21.42l.05.56Z" transform="translate(-892.44 -586.35)" style="fill:#08242e"/><path d="M1032.4,734.52c-4.42-.33-8-3.46-11.09-6.33-5.93-6.23-9.12-14.64-10.67-23a68.24,68.24,0,0,1-1.09-12.58l.56,0c1.4,9.16,3.15,18.43,7.57,26.63a36.29,36.29,0,0,0,7.43,9.47,42.3,42.3,0,0,0,4.94,3.44,11.92,11.92,0,0,1,2.55,1.83l-.2.53Z" transform="translate(-892.44 -586.35)" style="fill:#08242e"/><path d="M1031.18,739c-4.35-.17-8-3-11.39-5.49-6.49-5.51-10.62-13.49-12.78-21.6a57.91,57.91,0,0,1-1.87-12.39l.56-.06c1.63,8,3.78,16,7.95,23.06a39.78,39.78,0,0,0,7.61,9.27,37.87,37.87,0,0,0,7.49,5,11.6,11.6,0,0,1,2.61,1.71l-.18.54Z" transform="translate(-892.44 -586.35)" style="fill:#08242e"/><path d="M1032.67,720.1c-1.57-1.62-1.36-4-1.17-6,1.73-8.8,10.21-13.74,16.25-19.48l.44.36a39.38,39.38,0,0,1-5,6c-3.86,4-8.19,7.93-9.53,13.49-.43,1.87.12,3.58-.43,5.48l-.53.16Z" transform="translate(-892.44 -586.35)" style="fill:#08242e"/><path d="M1028.91,716.18a6.82,6.82,0,0,1-.68-4.8c1.28-10.94,13.44-17.79,12.53-29.22l.55-.1c2.78,9.78-6.26,17.26-9.74,25.47a18.24,18.24,0,0,0-1.3,4.16,24.19,24.19,0,0,1-.8,4.42l-.56.07Z" transform="translate(-892.44 -586.35)" style="fill:#08242e"/><path d="M1041.86,728.72c1.75-6.51,6.83-11.61,12.06-15.57,13.75-9.61,31.35-10.29,47.52-10.69,3.26-.07,6.52-.07,9.77-.1l0,.56c-5.58.61-13.78,1.17-19.46,1.64-15.63,1.35-32.88,4.23-43.59,16.77-2.06,2.42-3.72,5.09-5.83,7.64l-.51-.25Z" transform="translate(-892.44 -586.35)" style="fill:#08242e"/><path d="M1114.62,741.91c-1-2.58-.22-5.95-2.42-7.67-3.75-2.6-12.27,5.54-7.12,8.71a12.25,12.25,0,0,0,3.46,1.34,44,44,0,0,0,4.46.69v.56c-4.4.63-12.33-.18-11.5-6.33a10.4,10.4,0,0,1,6.63-7.37c2.85-1,5.95-.13,7.09,2.88.86,2.3,1.19,5,0,7.24l-.56-.05Z" transform="translate(-892.44 -586.35)" style="fill:#08242e"/><path d="M1099.58,790.84c-.59-1.86-.5-3.69-1.94-5-4.24-3.2-12.14,1.25-10.5,6.82l-.18-.37a9,9,0,0,0,2.71,2.27c2.87,1.74,8,2.79,9-1.51l.56.09a4.54,4.54,0,0,1-2.13,3.67c-4,2-9-.1-11.8-3.26a.62.62,0,0,1-.18-.37c-2.43-7.61,8.09-13.91,13.92-8.9a5.34,5.34,0,0,1,1.08,6.6l-.56-.09Z" transform="translate(-892.44 -586.35)" style="fill:#08242e"/><path d="M1074.76,821.82c-3-2.21-4.63-7.18-8.82-6.5-3.21,1.3-4,6.57-1.57,9,3.74,3.23,9.55.57,13.62-.87l.27.5c-.74.46-1.49.89-2.24,1.33-4.66,2.57-12.22,4.23-14.76-2-1.35-3.68,0-8.79,4-10.16,3.1-.9,6,1.46,7.66,3.62a9,9,0,0,1,2.31,4.8l-.5.27Z" transform="translate(-892.44 -586.35)" style="fill:#08242e"/><path d="M1025.73,811.59a2.31,2.31,0,0,0,1.07.35l-.93.29A4.85,4.85,0,0,0,1026,809a6.87,6.87,0,0,0-7-3.73c-2.66.5-3.61,3.65-2.26,6,1.74,3.58,7.72,6.92,9.63,1.68l.54.15a4.54,4.54,0,0,1-3.22,3.85c-6.95,1.44-13.91-9.31-6.56-13.42,4.64-2.18,11.28,1.68,11.14,6.93a5.29,5.29,0,0,1-1.54,3.19,2.52,2.52,0,0,1-1.45-1.77l.49-.28Z" transform="translate(-892.44 -586.35)" style="fill:#08242e"/><path d="M992.78,770.56c-.37-2.91,0-5.63-2.59-7.39-1.81-1.41-5.23-1.73-6.22.67-.65,1.41-.18,3.55.39,5.14a9.51,9.51,0,0,0,3.36,3.46c1.53,1.07,4.27,2.34,4.41-.57l.57,0a2.67,2.67,0,0,1-.77,2.5c-2.26,1.44-5.27-.55-7.09-1.88a8.71,8.71,0,0,1-2.17-2.42,14.6,14.6,0,0,1-.68-1.81c-3.27-10.23,10.27-11.35,12.34-2.4a5.48,5.48,0,0,1-1,4.89l-.54-.17Z" transform="translate(-892.44 -586.35)" style="fill:#08242e"/><path d="M1004.52,798.48c.2-1.52.46-2.44.08-3.37-.64-1.71-3.91-2.82-5.14-1.3a4.39,4.39,0,0,0-.63,3.28c-.68,2.44,1.1,4.78,3.39,5.59a3.34,3.34,0,0,0,3.24-.18c.93-.8.88-2.3.73-3.5l.55-.14a6.92,6.92,0,0,1,.48,2.21c.16,3-3.06,4.16-5.56,3.33-3.2-.85-5.77-4.18-5-7.59l0,.34c-.65-3.95,2-7.31,6.16-6.11,2.41.61,4.77,3.35,3.83,6a3.21,3.21,0,0,1-1.63,1.81l-.44-.35Z" transform="translate(-892.44 -586.35)" style="fill:#08242e"/><path d="M1011.6,689.28c.68-1.84,1.09-3.3.58-5.14-1.12-4.45-8.77-10.09-10.29-2.92l-.06.22a3.43,3.43,0,0,0-.36,3.71c.94,2.83,9.51,7.6,9.61,2.17l.56-.06a3.07,3.07,0,0,1-.51,2.63c-3,3.08-9.8-.5-11.44-3.84a5.56,5.56,0,0,1,.25-5.65l-.15.36c2.47-11.44,16.55-1.87,14.42,6.34a4.07,4.07,0,0,1-2.22,2.58l-.39-.4Z" transform="translate(-892.44 -586.35)" style="fill:#08242e"/><path d="M979.61,734.26c1.15-1,1.79-1.51,1.33-2.94-1-2.68-7.34-7.32-9-3.1l-.07.2a5.47,5.47,0,0,0-1.2,4.78c.81,4.53,10.09,10.95,8.6,2l.55-.14c.46,1.47.94,3.25.1,4.74-1.82,2.74-5.7.92-7.67-.71-3.54-2.7-5.37-8.13-2.27-11.9l-.17.32a4.91,4.91,0,0,1,1.81-2.5,4.51,4.51,0,0,1,3-.73c3.76.18,10.48,5.59,7.78,9.57a3,3,0,0,1-2.68,1l-.15-.54Z" transform="translate(-892.44 -586.35)" style="fill:#08242e"/><path d="M1049.62,691.23a14.86,14.86,0,0,0-3.11-7.17c-1-1.16-2.55-2.8-3.93-2.14-2.46,2-.15,6,1.47,8.05,1.41,1.85,4.39,4.42,5.85,1.3l.52.2a3.34,3.34,0,0,1-1.29,2c-4.35,2.33-10.17-5.89-9.8-9.84.15-1.84,1.41-3.95,3.5-4.2,4,0,6.45,4.11,7.69,7.27.52,1.48.89,3.43-.37,4.7l-.53-.2Z" transform="translate(-892.44 -586.35)" style="fill:#08242e"/><path d="M1120,705.73a6.44,6.44,0,0,0-.08-4.69c-1.88-4.07-9.42-6.72-10.31-.6a6.21,6.21,0,0,0,.21,5.25c1.94,4.5,11.21,10.41,9.31.95l.54-.15c.5,1.5,1,3.21.42,4.82-1.42,3.21-5.65,1.64-7.76.15-3.61-2.42-6.69-7.21-4.85-11.65.59-4.53,5.18-6.9,10.08-4.14,2.64,1.51,5.25,4.49,4.66,7.79a4,4,0,0,1-1.77,2.62l-.45-.35Z" transform="translate(-892.44 -586.35)" style="fill:#08242e"/></svg>